<?xml version="1.0" encoding="utf-8"?>
<!-- Generator: Adobe Illustrator 27.8.0, SVG Export Plug-In . SVG Version: 6.00 Build 0)  -->
<svg version="1.1" xmlns="http://www.w3.org/2000/svg" xmlns:xlink="http://www.w3.org/1999/xlink" x="0px" y="0px"
	 viewBox="0 0 518.7 209.8" style="enable-background:new 0 0 518.7 209.8;" xml:space="preserve">
<style type="text/css">
	.st0{display:none;fill:#3C3C3B;}
</style>
<g id="Ebene_1">
	<rect x="-351.5" y="-189.3" class="st0" width="1509.3" height="518.7"/>
	<g>
		<rect x="210.3" y="72.9" width="12.5" height="64.8"/>
		<path d="M198.4,75.4L198.4,75.4c-3.2-1.7-7.1-2.6-11.4-2.6h-28.7v64.8h13.2v-23.5H187c4.3,0,8.1-0.9,11.4-2.7
			c3.3-1.8,5.8-4.3,7.6-7.4c1.8-3.1,2.7-6.7,2.7-10.6c0-4.1-0.9-7.7-2.7-10.8C204.1,79.5,201.6,77.1,198.4,75.4z M194,98.2
			c-0.8,1.3-1.9,2.4-3.4,3.1c-1.5,0.7-3.3,1.1-5.4,1.1h-13.7V84.5h13.7c3.1,0,5.6,0.8,7.4,2.5c1.8,1.6,2.7,3.8,2.7,6.5
			C195.2,95.3,194.8,96.8,194,98.2z"/>
		<path d="M309.9,90.9L309.9,90.9c-2.7-1.4-5.7-2.1-9.1-2.1c-3.3,0-6.3,0.7-9,2.2c-1.8,1-3.4,2.2-4.7,3.6c-0.4,0.4-0.6,0.6-0.7,0.5
			c-0.1-0.1-0.2-0.1-0.2-0.9v-4.7h-12.5v48.2h12.5v-21.2c0-3.5,0.4-6.5,1.3-9c0.9-2.4,2.2-4.3,3.8-5.6c1.7-1.3,3.7-1.9,6.1-1.9
			c2.6,0,4.7,0.8,6.2,2.5c1.6,1.7,2.4,3.8,2.4,6.5v28.8h12.4v-31.4c0-3.5-0.7-6.6-2.2-9.2C314.7,94.4,312.6,92.3,309.9,90.9z"/>
		<path d="M384.9,92.1c-3.5-2.2-7.8-3.4-12.8-3.4c-5,0-9.3,1.2-12.9,3.5c-3.6,2.3-6.3,5.4-8,9.1c-1.8,3.7-2.6,7.8-2.6,12.2
			c0,4.4,1,8.5,2.8,12.2c1.9,3.8,4.7,6.8,8.3,9.2c3.6,2.3,8,3.5,13,3.5c4,0,7.6-0.7,10.8-1.9c3.2-1.3,5.8-3.2,7.9-5.7
			c2.1-2.5,3.4-5.5,3.9-8.9l0.1-0.6h-12.3l-0.1,0.4c-0.5,1.9-1.6,3.4-3.4,4.5c-1.8,1.1-3.9,1.7-6.5,1.7c-3.8,0-6.8-1.3-8.9-3.8
			c-1.6-1.8-2.6-4.2-3-7h34.2l0-0.5c0.1-1.4,0.2-2.8,0.2-4.2c0-4-0.9-7.8-2.6-11.4C391.1,97.3,388.4,94.3,384.9,92.1z M372.1,98.6
			c2,0,3.8,0.4,5.2,1.2c1.4,0.8,2.5,1.9,3.3,3.3c0.7,1.3,1.2,2.7,1.4,4.3h-20.6c0.2-0.8,0.4-1.5,0.6-2c0.9-2.2,2.2-3.9,3.9-5l0,0
			C367.6,99.1,369.7,98.6,372.1,98.6z"/>
		<path d="M267.6,126.7L267.6,126.7c-0.4-0.5-0.6-1.4-0.6-2.6v-16.6c0-3.8-0.9-7.1-2.6-9.9c-1.7-2.8-4.2-5-7.3-6.6
			c-3.1-1.5-6.8-2.3-11-2.3c-4,0-7.5,0.7-10.5,2c-3,1.4-5.4,3.3-7.2,5.9c-1.8,2.5-2.9,5.6-3.3,9l-0.1,0.6h12.1l0-0.5
			c0.2-2.2,1.1-4,2.7-5.2c1.6-1.3,3.7-1.9,6.3-1.9c2.5,0,4.6,0.6,6.2,1.7c1.5,1.1,2.3,2.5,2.3,4.1c0,0.9-0.3,1.6-0.8,2.1
			c-0.6,0.6-1.4,0.9-2.5,1.1l-9.4,1.3c-5.3,0.7-9.5,2.3-12.4,4.9c-2.9,2.6-4.4,6.1-4.4,10.3c0,2.7,0.7,5.2,2.2,7.3
			c1.5,2.2,3.5,3.9,6.1,5c2.5,1.2,5.5,1.8,8.7,1.8c3.6,0,6.7-0.6,9.4-1.9c1.8-0.9,3.3-1.9,4.4-3.2c0.2-0.2,0.4-0.3,0.6-0.3
			c0.2,0,0.4,0.2,0.4,0.4c0.5,1.2,1.3,2.2,2.4,3c1.7,1.2,3.8,1.8,6.4,1.8c1.7,0,3.6-0.2,5.5-0.6l0.4-0.1v-10.4l-0.6,0.1
			C269.2,127.6,268.2,127.5,267.6,126.7z M254.8,116v0.8c0,3.5-1,6.4-3,8.6c-2,2.2-4.7,3.3-8.2,3.3c-1.9,0-3.5-0.5-4.7-1.4
			c-1.2-0.9-1.7-2.1-1.7-3.6c0-1.6,0.5-2.9,1.6-3.9c1.1-1,2.7-1.7,4.9-2L254.8,116z"/>
	</g>
	<path d="M145,102.1c-1.4-17.6-15.7-31.9-33.3-33.3c-10.7-0.9-21.1,3-28.6,10.5c-9,9-12.6,21.8-9.7,34.3c3.8,16,18.5,27.7,35.1,27.8
		l0.2,0c9.7,0,18.9-3.8,25.7-10.7C142,123.2,145.9,112.7,145,102.1z M101.6,73.9c0.3-0.1,0.7-0.1,1-0.1c1.8,0,2.8,1.1,3.1,1.5h0
		c0.6,0.8,0.9,1.5,0.9,2.6V89c0,2.7-0.6,3.8-2.2,4.5c-5.5,2.4-8.7,8.1-7.6,13.8c0.8,4.2,3.8,7.8,7.8,9.2c4.3,1.6,9.1,0.7,12.5-2.4
		c2.6-2.3,4.1-5.7,4.1-9.2c0-4.8-2.8-9.1-7.2-11.2c-1.8-0.8-2.7-1.8-2.8-4.8l0-11c0-1.3,0.3-2.2,1-3c1-1.1,2.2-1.5,3.9-1.2
		c6.5,1.1,12.7,5,17.6,11.1c4.5,5.6,7.1,12.8,7.1,20c0,9.1-3.9,17.8-10.7,23.8c-6.9,6.1-15.7,9-25,7.9c-14.6-1.6-26.4-13.4-28.1-28
		C75.2,92.6,85.7,77.6,101.6,73.9z"/>
	<path d="M350,100l0-10.6l-3,0h-5.9c-1.5,0-2-0.2-2.1-1.3c0-0.2,0-0.5,0-0.8V75.6l0-2l0,0v-0.3h-12l-0.6,0l0,0.3l0,13.7
		c0,1.9-0.3,2.1-2.1,2.1h-5.9V100h8v22.2c0,5.2,1.6,9.3,4.7,12c3.1,2.7,7.3,4.1,12.5,4.1c2.2,0,4.2-0.2,5.9-0.7l0.4-0.1v-11
		l-0.6,0.2c-0.7,0.2-1.4,0.3-2.1,0.4h0c-0.7,0.1-1.5,0.2-2.2,0.2c-1.8,0-3.3-0.6-4.4-1.7c-1.1-1.1-1.7-2.7-1.7-4.7v-21H350z"/>
	<path d="M433.1,72.6c0,4.7,0,12.5,0,17.2v3.5c0,0.3-0.3,0.4-0.5,0.2c-1-1.1-2.4-2.1-4.1-2.9c-2.5-1.2-5.3-1.8-8.4-1.8l0,0
		c-0.1,0-0.1,0-0.2,0c-4.6,0-8.7,1-12.1,3.1c-3.4,2.1-6.1,5-8,8.7c-1.8,3.7-2.8,8.1-2.8,12.9c0,4.8,0.9,9.2,2.7,12.9
		c1.8,3.8,4.5,6.7,8,8.8c3.5,2.1,7.6,3.1,12.3,3.1c3,0,5.8-0.6,8.4-1.8c1.7-0.8,3.1-1.8,4.1-2.9c0.2-0.2,0.5-0.1,0.5,0.2v3.8h12.5
		v-65L433.1,72.6z M432.3,120.9c-1,2.1-2.4,3.7-4.2,4.8c-1.8,1.1-3.9,1.7-6.3,1.7s-4.5-0.6-6.3-1.7c-1.8-1.1-3.2-2.8-4.2-4.9
		c-1-2.1-1.5-4.6-1.5-7.4c0-2.8,0.5-5.2,1.5-7.3c1-2.1,2.4-3.7,4.2-4.8c1.8-1.1,3.9-1.7,6.3-1.7c2.4,0,4.5,0.6,6.3,1.7
		c1.8,1.1,3.2,2.7,4.2,4.8c1,2.1,1.5,4.6,1.5,7.3C433.8,116.3,433.3,118.8,432.3,120.9z"/>
</g>
<g id="Ebene_2">
</g>
</svg>
